<svg width="24" height="24" viewBox="0 0 24 24" fill="none" xmlns="http://www.w3.org/2000/svg">
<path opacity="0.4" d="M17.1203 18.1788C18.5734 19.6319 18.2465 22.0001 16.1916 22.0001H7.81155C7.52084 22.0001 7.39918 21.6624 7.60475 21.4569L11.725 17.3366C12.9823 16.0793 15.0208 16.0793 16.2781 17.3366L17.1203 18.1788Z" fill="url(#paint0_linear_1_31110)"/>
<path opacity="0.4" d="M21.9986 7.8101V16.1901C21.9986 18.245 19.6304 18.5719 18.1774 17.1189L17.3352 16.2767C16.0779 15.0194 16.0779 12.9808 17.3352 11.7235L21.4554 7.60329C21.661 7.39772 21.9986 7.51938 21.9986 7.8101Z" fill="url(#paint1_linear_1_31110)"/>
<path opacity="0.4" d="M18.2669 10.7931C16.4958 12.5642 16.4958 15.4358 18.2669 17.2069L20.407 19.347C20.7158 19.6558 20.7675 20.15 20.4588 20.4587C20.15 20.7675 19.6558 20.7158 19.347 20.407L17.2069 18.2669C15.4358 16.4958 12.5642 16.4958 10.7931 18.2669L8.36955 20.6905C7.56238 21.4976 6.41801 21.993 5.35001 21.59C3.21001 20.81 2 18.91 2 16.19V7.81C2 4.17 4.17 2 7.81 2H16.19C18.91 2 20.81 3.21 21.59 5.35C21.993 6.418 21.4976 7.56237 20.6905 8.36954L18.2669 10.7931Z" fill="url(#paint2_linear_1_31110)"/>
<path d="M18.2685 10.7932C16.4973 12.5643 16.4973 15.4359 18.2685 17.207L20.4086 19.3471C20.7173 19.6559 20.769 20.1501 20.4603 20.4588C20.1516 20.7676 19.6573 20.7159 19.3486 20.4071L17.2085 18.267C15.4374 16.4959 12.5658 16.4959 10.7946 18.267L7.38791 21.6737C7.20585 21.8558 6.95387 21.9545 6.69843 21.9222C6.41209 21.886 6.1383 21.8313 5.87606 21.7599C5.62656 21.6921 5.55872 21.3829 5.74155 21.2001L20.6084 6.33329C21.0693 5.87237 21.8371 6.02966 21.921 6.67609C21.9541 6.93141 21.8573 7.20439 21.6752 7.38644L18.2685 10.7932Z" fill="url(#paint3_linear_1_31110)"/>
<path d="M12.2408 7.92979C11.8608 6.27979 10.4008 5.53979 9.12078 5.52979C7.84078 5.52979 6.38079 6.26978 6.00079 7.91978C5.58079 9.74978 6.70078 11.2798 7.71078 12.2398C8.11078 12.6198 8.61078 12.7998 9.12078 12.7998C9.63078 12.7998 10.1308 12.6098 10.5308 12.2398C11.5408 11.2798 12.6608 9.74979 12.2408 7.92979ZM9.15078 9.48978C8.60078 9.48978 8.15078 9.03978 8.15078 8.48978C8.15078 7.93978 8.59078 7.48978 9.15078 7.48978H9.16079C9.71079 7.48978 10.1608 7.93978 10.1608 8.48978C10.1608 9.03978 9.70078 9.48978 9.15078 9.48978Z" fill="url(#paint4_linear_1_31110)"/>
<defs>
<linearGradient id="paint0_linear_1_31110" x1="6.43918" y1="11.3662" x2="28.5775" y2="21.5659" gradientUnits="userSpaceOnUse">
<stop stop-color="#7A63EC"/>
<stop offset="1" stop-color="#7A63EC" stop-opacity="0"/>
</linearGradient>
<linearGradient id="paint1_linear_1_31110" x1="14.6989" y1="0.297839" x2="29.0085" y2="2.24199" gradientUnits="userSpaceOnUse">
<stop stop-color="#7A63EC"/>
<stop offset="1" stop-color="#7A63EC" stop-opacity="0"/>
</linearGradient>
<linearGradient id="paint2_linear_1_31110" x1="0.965488" y1="-8.62387" x2="40.4117" y2="1.2452" gradientUnits="userSpaceOnUse">
<stop stop-color="#7A63EC"/>
<stop offset="1" stop-color="#7A63EC" stop-opacity="0"/>
</linearGradient>
<linearGradient id="paint3_linear_1_31110" x1="4.49068" y1="-3.49071" x2="37.3164" y2="4.72197" gradientUnits="userSpaceOnUse">
<stop stop-color="#7A63EC"/>
<stop offset="1" stop-color="#7A63EC" stop-opacity="0"/>
</linearGradient>
<linearGradient id="paint4_linear_1_31110" x1="5.57735" y1="1.66027" x2="18.4339" y2="4.50134" gradientUnits="userSpaceOnUse">
<stop stop-color="#7A63EC"/>
<stop offset="1" stop-color="#7A63EC" stop-opacity="0"/>
</linearGradient>
</defs>
</svg>
