<svg width="18" height="20" viewBox="0 0 18 20" fill="none" xmlns="http://www.w3.org/2000/svg">
<path d="M16.7695 9.64534C16.039 8.79229 15.7071 8.05305 15.7071 6.79716V6.37013C15.7071 4.73354 15.3304 3.67907 14.5115 2.62459C13.2493 0.986993 11.1244 0 9.04423 0H8.95577C6.91935 0 4.86106 0.941671 3.577 2.5128C2.71333 3.58842 2.29293 4.68822 2.29293 6.37013V6.79716C2.29293 8.05305 1.98284 8.79229 1.23049 9.64534C0.676907 10.2738 0.5 11.0815 0.5 11.9557C0.5 12.8309 0.787226 13.6598 1.36367 14.3336C2.11602 15.1413 3.17846 15.6569 4.26375 15.7466C5.83505 15.9258 7.40634 15.9933 9.0005 15.9933C10.5937 15.9933 12.165 15.8805 13.7372 15.7466C14.8215 15.6569 15.884 15.1413 16.6363 14.3336C17.2118 13.6598 17.5 12.8309 17.5 11.9557C17.5 11.0815 17.3231 10.2738 16.7695 9.64534Z" fill="url(#paint0_linear_294_326)"/>
<path opacity="0.4" d="M11.0097 17.2283C10.5098 17.1215 7.46364 17.1215 6.96372 17.2283C6.53636 17.327 6.07422 17.5566 6.07422 18.0602C6.09905 18.5403 6.38004 18.9641 6.76932 19.2331C6.76964 19.2333 6.76968 19.2337 6.76941 19.234C6.76915 19.2342 6.76918 19.2347 6.76947 19.2349C7.27324 19.6274 7.86439 19.8771 8.48334 19.9667C8.8133 20.012 9.14923 20.01 9.49111 19.9667C10.1091 19.8771 10.7002 19.6274 11.204 19.2349C11.2043 19.2347 11.2043 19.2342 11.204 19.234C11.2038 19.2337 11.2038 19.2333 11.2041 19.2331C11.5934 18.9641 11.8744 18.5403 11.8992 18.0602C11.8992 17.5566 11.4371 17.327 11.0097 17.2283Z" fill="url(#paint1_linear_294_326)"/>
<defs>
<linearGradient id="paint0_linear_294_326" x1="-0.381097" y1="-8.51257" x2="32.9603" y2="0.354217" gradientUnits="userSpaceOnUse">
<stop stop-color="#7A63EC"/>
<stop offset="1" stop-color="#7A63EC" stop-opacity="0"/>
</linearGradient>
<linearGradient id="paint1_linear_294_326" x1="5.77231" y1="15.6303" x2="15.4715" y2="20.5871" gradientUnits="userSpaceOnUse">
<stop stop-color="#7A63EC"/>
<stop offset="1" stop-color="#7A63EC" stop-opacity="0"/>
</linearGradient>
</defs>
</svg>
