<svg width="40" height="40" viewBox="0 0 40 40" fill="none" xmlns="http://www.w3.org/2000/svg">
<rect width="40" height="40" rx="12" fill="white" fill-opacity="0.5" style="mix-blend-mode:hard-light"/>
<rect x="0.711794" y="0.711794" width="38.5764" height="38.5764" rx="11.2882" stroke="white" stroke-opacity="0.4" stroke-width="1.42359"/>
<path opacity="0.4" d="M25 29H15C12 29 10 27.5 10 24V17C10 13.5 12 12 15 12H25C28 12 30 13.5 30 17V24C30 27.5 28 29 25 29Z" fill="url(#paint0_linear_563_707)"/>
<path d="M19.9988 21.37C19.1588 21.37 18.3088 21.11 17.6588 20.58L14.5288 18.08C14.2088 17.82 14.1488 17.35 14.4088 17.03C14.6688 16.71 15.1388 16.65 15.4588 16.91L18.5888 19.41C19.3488 20.02 20.6388 20.02 21.3988 19.41L24.5288 16.91C24.8488 16.65 25.3288 16.7 25.5788 17.03C25.8388 17.35 25.7888 17.83 25.4588 18.08L22.3288 20.58C21.6888 21.11 20.8388 21.37 19.9988 21.37Z" fill="url(#paint1_linear_563_707)"/>
<defs>
<linearGradient id="paint0_linear_563_707" x1="8.96341" y1="2.95161" x2="47.6142" y2="14.3282" gradientUnits="userSpaceOnUse">
<stop stop-color="#7A63EC"/>
<stop offset="1" stop-color="#7A63EC" stop-opacity="0"/>
</linearGradient>
<linearGradient id="paint1_linear_563_707" x1="13.6501" y1="14.282" x2="31.0622" y2="25.1107" gradientUnits="userSpaceOnUse">
<stop stop-color="#7A63EC"/>
<stop offset="1" stop-color="#7A63EC" stop-opacity="0"/>
</linearGradient>
</defs>
</svg>
