<svg width="32" height="32" viewBox="0 0 32 32" fill="none" xmlns="http://www.w3.org/2000/svg">
<rect width="32" height="32" rx="8" fill="#F57C1E"/>
<path d="M10.75 18.25C9.0925 18.25 7.75 19.5925 7.75 21.25C7.75 21.8125 7.9075 22.345 8.185 22.795C8.7025 23.665 9.655 24.25 10.75 24.25C11.845 24.25 12.7975 23.665 13.315 22.795C13.5925 22.345 13.75 21.8125 13.75 21.25C13.75 19.5925 12.4075 18.25 10.75 18.25ZM12.2275 21.0025L10.63 22.48C10.525 22.5775 10.3825 22.63 10.2475 22.63C10.105 22.63 9.9625 22.5775 9.85 22.465L9.1075 21.7225C8.89 21.505 8.89 21.145 9.1075 20.9275C9.325 20.71 9.685 20.71 9.9025 20.9275L10.2625 21.2875L11.4625 20.1775C11.6875 19.9675 12.0475 19.9825 12.2575 20.2075C12.4675 20.4325 12.4525 20.7925 12.2275 21.0025Z" fill="white"/>
<path d="M23.125 16.375H21.25C20.425 16.375 19.75 17.05 19.75 17.875C19.75 18.7 20.425 19.375 21.25 19.375H23.125C23.335 19.375 23.5 19.21 23.5 19V16.75C23.5 16.54 23.335 16.375 23.125 16.375Z" fill="white"/>
<path d="M19.3959 11.0501C19.6209 11.2676 19.4334 11.6051 19.1184 11.6051L12.9084 11.5976C12.5484 11.5976 12.3684 11.1626 12.6234 10.9076L13.9359 9.58762C15.0459 8.48512 16.8384 8.48512 17.9484 9.58762L19.3659 11.0201C19.3734 11.0276 19.3884 11.0426 19.3959 11.0501Z" fill="white"/>
<path d="M23.402 20.995C22.9445 22.54 21.6245 23.5 19.8245 23.5H14.9495C14.657 23.5 14.4695 23.1775 14.5895 22.9075C14.8145 22.3825 14.957 21.79 14.957 21.25C14.957 18.9775 13.1045 17.125 10.832 17.125C10.262 17.125 9.70703 17.245 9.19703 17.47C8.91953 17.59 8.58203 17.4025 8.58203 17.1025V16C8.58203 13.96 9.81203 12.535 11.7245 12.295C11.912 12.265 12.1145 12.25 12.3245 12.25H19.8245C20.0195 12.25 20.207 12.2575 20.387 12.2875C21.902 12.46 22.997 13.3825 23.402 14.755C23.477 15.0025 23.297 15.25 23.042 15.25H21.3245C19.697 15.25 18.407 16.735 18.7595 18.4225C19.007 19.6525 20.147 20.5 21.3995 20.5H23.042C23.3045 20.5 23.477 20.755 23.402 20.995Z" fill="white"/>
</svg>
