<svg width="32" height="32" viewBox="0 0 32 32" fill="none" xmlns="http://www.w3.org/2000/svg">
<rect width="32" height="32" rx="8" fill="#FE4651"/>
<path d="M19.75 10H12.25C10 10 8.5 11.125 8.5 13.75V16.42C8.5 16.6975 8.785 16.87 9.0325 16.7575C9.7675 16.42 10.615 16.2925 11.5075 16.45C13.48 16.8025 14.9275 18.6325 14.875 20.635C14.8675 20.95 14.8225 21.2575 14.74 21.5575C14.68 21.79 14.8675 22.0075 15.1075 22.0075H19.75C22 22.0075 23.5 20.8825 23.5 18.2575V13.75C23.5 11.125 22 10 19.75 10ZM16 17.875C14.965 17.875 14.125 17.035 14.125 16C14.125 14.965 14.965 14.125 16 14.125C17.035 14.125 17.875 14.965 17.875 16C17.875 17.035 17.035 17.875 16 17.875ZM21.4375 17.5C21.4375 17.8075 21.1825 18.0625 20.875 18.0625C20.5675 18.0625 20.3125 17.8075 20.3125 17.5V14.5C20.3125 14.1925 20.5675 13.9375 20.875 13.9375C21.1825 13.9375 21.4375 14.1925 21.4375 14.5V17.5Z" fill="white"/>
<path d="M10.75 17.5C9.85 17.5 9.0475 17.8975 8.5 18.52C8.035 19.0525 7.75 19.7425 7.75 20.5C7.75 21.0625 7.9075 21.595 8.185 22.045C8.7025 22.915 9.655 23.5 10.75 23.5C11.5075 23.5 12.1975 23.2225 12.7225 22.75C12.955 22.555 13.1575 22.315 13.315 22.045C13.5925 21.595 13.75 21.0625 13.75 20.5C13.75 18.8425 12.4075 17.5 10.75 17.5ZM11.95 21.685C11.8375 21.7975 11.695 21.85 11.5525 21.85C11.41 21.85 11.2675 21.7975 11.155 21.685L10.7575 21.2875L10.345 21.7C10.2325 21.8125 10.09 21.865 9.9475 21.865C9.805 21.865 9.6625 21.8125 9.55 21.7C9.3325 21.4825 9.3325 21.1225 9.55 20.905L9.9625 20.4925L9.565 20.095C9.3475 19.8775 9.3475 19.5175 9.565 19.3C9.7825 19.0825 10.1425 19.0825 10.36 19.3L10.7575 19.6975L11.1325 19.3225C11.35 19.105 11.71 19.105 11.9275 19.3225C12.145 19.54 12.145 19.9 11.9275 20.1175L11.5525 20.4925L11.95 20.89C12.1675 21.1075 12.1675 21.46 11.95 21.685Z" fill="white"/>
</svg>
